<?xml version="1.0" encoding="utf-8"?>
<!-- Svg Vector Icons : http://www.onlinewebfonts.com/icon -->
<!DOCTYPE svg PUBLIC "-//W3C//DTD SVG 1.1//EN" "http://www.w3.org/Graphics/SVG/1.1/DTD/svg11.dtd">
<svg version="1.1" xmlns="http://www.w3.org/2000/svg" xmlns:xlink="http://www.w3.org/1999/xlink" x="0px" y="0px" viewBox="0 0 1000 1000" enable-background="new 0 0 1000 1000" xml:space="preserve">
<metadata> Svg Vector Icons : http://www.onlinewebfonts.com/icon </metadata>
<g><g transform="translate(0.000000,511.000000) scale(0.100000,-0.100000)"><path d="M5572.3,4180.7l-362.5-839.2l-1698.1-698.6c-933.6-384.4-1702.5-703-1709.1-709.6c-6.6-4.4-391-1342.3-856.8-2972.3L100-4000.2l397.6-397.6l399.8-399.9l2967.9,848l2967.9,848l703,1711.3l705.2,1711.3l828.2,353.7c456.9,195.5,830.4,358.1,830.4,364.7S9008.1,1942.2,7916.3,3034L5932.6,5017.7L5572.3,4180.7z M9241,1171.1c0-6.6-248.2-118.6-553.6-248.2L8136,685.6L6864,1955.3c-698.6,698.6-1269.8,1278.5-1269.8,1291.7c0,11,105.5,268,235.1,566.8l232.9,547l1590.5-1590.5C8524.8,1898.2,9241,1177.7,9241,1171.1z M6598.2,1693.9L7874.5,413.2l-652.5-1586.1C6864-2047.3,6560.8-2770,6549.9-2781c-17.5-15.4-1935.4-566.8-4905.5-1410.3l-641.5-182.4l-54.9,54.9l-54.9,52.7l1460.9,1460.9l1458.7,1458.7l74.7-70.3l72.5-70.3h382.2h384.4l279,279l281.2,281.2v373.5V-180l-279,279l-281.2,281.2h-384.4h-384.4l-279-279L3397.4-180v-373.5v-375.7l65.9-63.7c37.4-35.2,65.9-74.7,65.9-85.7c0-13.2-652.5-676.6-1449.9-1474.1L629.4-4002.4l-54.9,54.9l-54.9,54.9l793.1,2779l790.9,2779l1586.1,652.5c872.1,358.1,1597.1,652.5,1608.1,652.5C5310.9,2972.5,5895.2,2396.9,6598.2,1693.9z M4741.9-162.4l171.3-171.3v-219.7v-219.7l-169.2-169.2l-171.3-171.3h-230.7h-230.7l-169.2,169.1l-171.3,171.4v219.7v219.7L3940-164.6L4111.4,6.8h230.7h230.7L4741.9-162.4z"/></g></g>
</svg>